<svg width="38" height="38" viewBox="0 0 38 38" fill="none" xmlns="http://www.w3.org/2000/svg">
<path d="M14.25 15.8334L19.4085 19.7031C19.7281 19.9428 20.1265 20.0528 20.5237 20.0111C20.921 19.9694 21.2879 19.7791 21.5507 19.4782L31.6667 7.91675" stroke="black" stroke-linecap="round"/>
<path d="M33.25 19C33.2501 21.9775 32.3174 24.8802 30.5831 27.3005C28.8488 29.7207 26.3999 31.537 23.5805 32.494C20.761 33.4511 17.7125 33.5009 14.8632 32.6366C12.014 31.7722 9.50701 30.0371 7.69448 27.6748C5.88196 25.3125 4.85492 22.4419 4.75761 19.4659C4.66031 16.49 5.49762 13.5584 7.15195 11.0828C8.80629 8.60716 11.1945 6.71194 13.9813 5.66328C16.768 4.61463 19.8132 4.46523 22.6892 5.23607" stroke="black" stroke-linecap="round"/>
</svg>
